Coordinates
version=1
nRows=27
nColumns=30
inDegrees=yes

Units are S.I. units (second, meters, Newtons, ...)
Angles are in degrees.

endheader
time	floatyaw	floatroll	floatpitch	floatx	floaty	floatz	pro_sup_l	deviation_l	flexion_l	cmc_flexion_l	cmc_abduction_l	mp_flexion_l	ip_flexion_l	2mcp_flexion_l	2mcp_abduction_l	2pm_flexion_l	2md_flexion_l	3mcp_flexion_l	3mcp_abduction_l	3pm_flexion_l	3md_flexion_l	4mcp_flexion_l	4mcp_abduction_l	4pm_flexion_l	4md_flexion_l	5mcp_flexion_l	5mcp_abduction_l	5pm_flexion_l	5md_flexion_l
0.005000	-3.856690	-4.835354	96.479781	0.054712	-0.157936	0.051965	13.515383	2.205609	-4.910969	0.162323	30.105088	-32.007272	-49.762082	62.565460	5.297475	73.274867	42.106531	62.486141	5.983720	77.463212	46.314832	61.847840	-6.322987	80.451035	51.323426	44.113783	-5.286026	79.248393	43.433107
0.015000	-3.856690	-4.835354	96.479781	0.054970	-0.155356	0.051630	12.953983	2.966243	-4.626633	0.081653	30.289050	-32.080952	-49.974866	62.615246	5.160019	73.504871	42.291537	63.434357	5.955205	77.654460	46.273652	63.112598	-6.303819	80.404767	51.254012	44.961541	-5.150427	79.575093	43.505223
0.025000	-3.856690	-4.835354	96.479781	0.055346	-0.151754	0.051372	12.852329	3.525342	-4.292202	0.100694	30.408206	-32.203526	-50.284710	62.456194	5.220981	73.896256	42.536554	64.310583	5.895310	77.885037	46.223556	64.241587	-6.296222	80.250792	51.115153	45.908919	-5.028580	79.889990	43.527564
0.035000	-3.856690	-4.835354	96.479781	0.055791	-0.147513	0.051128	13.278489	3.854385	-3.889327	0.178790	30.516579	-32.386167	-50.699307	62.248125	5.382834	74.278076	42.754011	65.087846	5.827490	78.158034	46.170783	65.222279	-6.290565	80.128348	50.921474	46.899195	-4.932395	80.161580	43.519871
0.045000	-3.856690	-4.835354	96.479781	0.056260	-0.143244	0.050823	14.138161	3.984343	-3.412706	0.251148	30.645298	-32.596521	-51.140612	62.098755	5.540037	74.486489	42.871448	65.718141	5.779268	78.427581	46.097743	66.019629	-6.279750	80.118945	50.671879	47.816311	-4.871208	80.377587	43.514675
0.055000	-3.856690	-4.835354	96.479781	0.056698	-0.139631	0.050411	15.163695	3.998997	-2.895476	0.253244	30.789760	-32.777281	-51.483097	62.049527	5.619476	74.438385	42.862164	66.164398	5.770350	78.635813	45.983858	66.603404	-6.262196	80.245700	50.369883	48.547394	-4.847861	80.546145	43.542520
0.065000	-3.856690	-4.835354	96.479781	0.057041	-0.137205	0.049899	16.007223	4.009710	-2.403368	0.152101	30.911350	-32.875509	-51.614148	62.076352	5.599412	74.159041	42.750973	66.415816	5.804354	78.746544	45.822134	66.963560	-6.240662	80.485821	50.032726	49.025006	-4.857820	80.686566	43.619556
0.075000	-3.856690	-4.835354	96.479781	0.057220	-0.136171	0.049338	16.389534	4.114366	-2.002631	-0.040758	30.957386	-32.864880	-51.481315	62.109720	5.503624	73.753566	42.594364	66.484360	5.869131	78.760952	45.625526	67.111494	-6.218581	80.790761	49.689061	49.236954	-4.892251	80.815584	43.742603
0.085000	-3.856690	-4.835354	96.479781	0.057187	-0.136362	0.048797	16.218279	4.357909	-1.726355	-0.282450	30.888661	-32.750305	-51.103422	62.068273	5.378511	73.345244	42.449839	66.391609	5.944738	78.710644	45.422684	67.072605	-6.196950	81.107978	49.370748	49.210999	-4.942122	80.937576	43.893469
0.095000	-3.856690	-4.835354	96.479781	0.056938	-0.137332	0.048336	15.609278	4.716430	-1.562503	-0.525284	30.698218	-32.557930	-50.548705	61.891634	5.267598	73.020785	42.353602	66.158882	6.013353	78.636651	45.247270	66.879664	-6.173833	81.398763	49.104731	48.992275	-5.000622	81.044409	44.049248
0.105000	-3.856690	-4.835354	96.479781	0.056520	-0.138550	0.047997	14.808408	5.114040	-1.467333	-0.738000	30.412199	-32.320957	-49.900830	61.559529	5.195745	72.808801	42.315416	65.806815	6.065372	78.569081	45.126225	66.572911	-6.146377	81.648434	48.907841	48.627399	-5.063372	81.123089	44.192188
0.115000	-3.856690	-4.835354	96.479781	0.056019	-0.139589	0.047786	14.068896	5.461927	-1.389852	-0.912061	30.075854	-32.069225	-49.232276	61.092303	5.166894	72.690661	42.326129	65.360524	6.099724	78.518252	45.071105	66.203140	-6.113543	81.867149	48.784338	48.158124	-5.127113	81.164698	44.314419
0.125000	-3.856690	-4.835354	96.479781	0.055525	-0.140231	0.047681	13.552296	5.697645	-1.290618	-1.055577	29.734113	-31.824150	-48.591950	60.536079	5.171120	72.626182	42.368544	64.852127	6.120321	78.478983	45.075225	65.827224	-6.077586	82.081049	48.725351	47.619950	-5.187924	81.169294	44.417317
0.135000	-3.856690	-4.835354	96.479781	0.055107	-0.140470	0.047634	13.293049	5.806145	-1.148318	-1.182629	29.414592	-31.597198	-48.003396	59.941023	5.193951	72.576734	42.425721	64.316171	6.131951	78.442052	45.117809	65.490394	-6.043371	82.316193	48.710854	47.041194	-5.240264	81.145361	44.508069
0.145000	-3.856690	-4.835354	96.479781	0.054786	-0.140440	0.047588	13.224822	5.816917	-0.957691	-1.304060	29.117948	-31.390592	-47.468073	59.342872	5.222877	72.517353	42.485487	63.780509	6.137840	78.404516	45.173684	65.204157	-6.016096	82.582829	48.715601	46.441821	-5.277720	81.105628	44.595922
0.155000	-3.856690	-4.835354	96.479781	0.054544	-0.140321	0.047497	13.238646	5.783947	-0.725216	-1.422291	28.819104	-31.200269	-46.971731	58.755188	5.249637	72.438382	42.542116	63.259427	6.139352	78.373594	45.224093	64.938385	-5.998926	82.870175	48.718549	45.833803	-5.295247	81.062600	44.689185
0.165000	-3.856690	-4.835354	96.479781	0.054340	-0.140257	0.047338	13.238345	5.760761	-0.465820	-1.530806	28.480181	-31.020650	-46.494426	58.173525	5.269561	72.341391	42.596016	62.754164	6.137011	78.363908	45.263402	64.638506	-5.991842	83.156039	48.711865	45.224184	-5.291596	81.026275	44.793219
0.175000	-3.856690	-4.835354	96.479781	0.054136	-0.140321	0.047120	13.171738	5.781512	-0.200041	-1.617803	28.070389	-30.849346	-46.022976	57.586569	5.280062	72.233472	42.651667	62.260403	6.131746	78.391230	45.299016	64.258733	-5.992052	83.424124	48.704279	44.619667	-5.270450	81.004032	44.909494
0.185000	-3.856690	-4.835354	96.479781	0.053907	-0.140512	0.046872	13.033739	5.853771	0.049889	-1.672362	27.583626	-30.689592	-45.560870	56.987221	5.279731	72.121993	42.714215	61.777369	6.125425	78.466279	45.345817	63.789260	-5.995373	83.675808	48.716484	44.029868	-5.239439	81.001135	45.036088
0.195000	-3.856690	-4.835354	96.479781	0.053650	-0.140786	0.046634	12.850116	5.962793	0.265095	-1.690532	27.045315	-30.549413	-45.129654	56.378556	5.268270	72.011039	42.785964	61.312592	6.120377	78.591009	45.418940	63.261026	-5.997726	83.928646	48.771164	43.467033	-5.207324	81.020990	45.169685
0.205000	-3.856690	-4.835354	96.479781	0.053377	-0.141082	0.046439	12.655199	6.082729	0.434483	-1.678450	26.505400	-30.438260	-44.759969	55.773619	5.246706	71.900614	42.864378	60.880118	6.118257	78.758429	45.528200	62.728812	-5.996106	84.204387	48.882774	42.942768	-5.180730	81.065420	45.307892
0.215000	-3.856690	-4.835354	96.479781	0.053105	-0.141352	0.046303	12.474613	6.188713	0.556533	-1.650387	26.020905	-30.362922	-44.477248	55.191229	5.217274	71.788624	42.942534	60.494721	6.119085	78.955547	45.675360	62.246249	-5.988916	84.515507	49.051227	42.464805	-5.162079	81.134883	45.449901
0.225000	-3.856690	-4.835354	96.479781	0.052853	-0.141569	0.046226	12.318458	6.265107	0.637691	-1.622332	25.635505	-30.324497	-44.290232	54.650417	5.182894	71.674223	43.011891	60.166528	6.121160	79.167840	45.853880	61.847185	-5.975931	84.858292	49.261399	42.036450	-5.149691	81.227837	45.594704
0.235000	-3.856690	-4.835354	96.479781	0.052631	-0.141730	0.046198	12.184103	6.308135	0.688523	-1.604782	25.364162	-30.317524	-44.187619	54.164925	5.146588	71.560422	43.066157	59.898519	6.122003	79.383149	46.050701	61.539829	-5.958233	85.215356	49.488219	41.658319	-5.139691	81.339020	45.738516
0.245000	-3.856690	-4.835354	96.479781	0.052446	-0.141847	0.046201	12.063789	6.323888	0.719755	-1.599171	25.188791	-30.331538	-44.142937	53.738919	5.111096	71.454066	43.104192	59.686401	6.119855	79.593596	46.249843	61.311404	-5.938079	85.564908	49.705227	41.329456	-5.128554	81.458370	45.874203
0.255000	-3.856690	-4.835354	96.479781	0.052294	-0.141936	0.046217	11.951436	6.323845	0.739982	-1.599657	25.066888	-30.354620	-44.124478	53.366233	5.078490	71.362326	43.129871	59.519540	6.114893	79.795428	46.437093	61.137394	-5.918376	85.890699	49.893030	41.045875	-5.115038	81.573062	45.993885
0.265000	-3.856690	-4.835354	96.479781	0.052169	-0.142015	0.046235	11.845243	6.319951	0.755308	-1.598292	24.949457	-30.377491	-44.106090	53.034773	5.049624	71.287185	43.148744	59.382877	6.109414	79.987640	46.604112	60.990909	-5.901693	86.187180	50.044277	40.797993	-5.100687	81.672800	46.093060
